<svg width="63" height="67" viewBox="0 0 63 67" fill="none" xmlns="http://www.w3.org/2000/svg">
<g filter="url(#filter0_b_491_788)">
<path d="M0 34.3286C0 28.2031 0 25.1403 1.11486 22.5912C1.95378 20.673 3.23355 18.9798 4.8501 17.6493C6.99835 15.8813 9.94491 15.0456 15.838 13.3743L20.6094 12.0212C26.0196 10.4869 28.7247 9.71969 31.5 9.71969C34.2753 9.71969 36.9804 10.4869 42.3906 12.0212L47.162 13.3743C53.0551 15.0456 56.0016 15.8813 58.1499 17.6493C59.7665 18.9798 61.0462 20.673 61.8851 22.5912C63 25.1403 63 28.2031 63 34.3286V35.4996C63 46.2691 63 51.6539 60.9764 55.7984C59.0252 59.7947 55.795 63.0248 51.7987 64.976C47.6542 66.9996 42.2695 66.9996 31.5 66.9996C20.7305 66.9996 15.3458 66.9996 11.2013 64.976C7.20496 63.0248 3.97485 59.7947 2.0236 55.7984C0 51.6539 0 46.2691 0 35.4996L0 34.3286Z" fill="url(#paint0_linear_491_788)"/>
</g>
<g filter="url(#filter1_b_491_788)">
<path fill-rule="evenodd" clip-rule="evenodd" d="M11.2501 0C7.5222 0 4.50012 4.13945 4.50012 9.24572V29.4801C17.7198 39.4343 24.6778 49.084 31.5001 49.1334C38.467 49.1839 45.2925 39.4253 58.5001 29.4801V9.24573C58.5001 4.13945 55.478 0 51.7501 0H11.2501Z" fill="#B9DDFF" fill-opacity="1"/>
<path d="M4.80607 9.24572C4.80607 6.75049 5.54488 4.50384 6.72425 2.88841C7.9038 1.27274 9.50764 0.305948 11.2501 0.305948H51.7501C53.4926 0.305948 55.0964 1.27274 56.276 2.88841C57.4554 4.50384 58.1942 6.75049 58.1942 9.24573V29.3276C53.4807 32.8869 49.5736 36.4246 46.1943 39.4844C44.8742 40.6797 43.6347 41.802 42.4591 42.8242C40.348 44.6598 38.4468 46.17 36.6468 47.218C34.8483 48.2651 33.1701 48.8396 31.5023 48.8275C29.8699 48.8157 28.2094 48.2296 26.4171 47.1777C24.6237 46.1252 22.7184 44.6183 20.599 42.7894C19.4115 41.7647 18.1578 40.6396 16.8221 39.4409C13.4315 36.3981 9.51249 32.8811 4.80607 29.3276V9.24572Z" stroke="url(#paint1_linear_491_788)" stroke-width="0.611895"/>
</g>
<rect x="44.7554" y="13.6451" width="3.97718" height="26.5105" rx="1.98859" transform="rotate(90 44.7554 13.6451)" fill="url(#paint2_linear_491_788)" fill-opacity="0.9" stroke="url(#paint3_linear_491_788)" stroke-width="0.489516"/>
<rect x="44.7554" y="27.0446" width="3.97718" height="26.5105" rx="1.98859" transform="rotate(90 44.7554 27.0446)" fill="url(#paint4_linear_491_788)" fill-opacity="0.9" stroke="url(#paint5_linear_491_788)" stroke-width="0.489516"/>
<path fill-rule="evenodd" clip-rule="evenodd" d="M62.0917 23.8176C62.5993 25.186 62.8234 26.7588 62.9223 28.9029L32.9193 53.0999C32.0927 53.7666 30.9083 53.7666 30.0817 53.0999L0.0784912 28.9027C0.177376 26.7586 0.401424 25.1858 0.90906 23.8174L31.5005 48.489L62.0917 23.8176Z" fill="url(#paint6_linear_491_788)"/>
<defs>
<filter id="filter0_b_491_788" x="-13.3053" y="-3.58554" width="89.6105" height="83.8908" filterUnits="userSpaceOnUse" color-interpolation-filters="sRGB">
<feFlood flood-opacity="0" result="BackgroundImageFix"/>
<feGaussianBlur in="BackgroundImageFix" stdDeviation="6.65264"/>
<feComposite in2="SourceAlpha" operator="in" result="effect1_backgroundBlur_491_788"/>
<feBlend mode="normal" in="SourceGraphic" in2="effect1_backgroundBlur_491_788" result="shape"/>
</filter>
<filter id="filter1_b_491_788" x="-8.80515" y="-13.3053" width="80.6105" height="75.7443" filterUnits="userSpaceOnUse" color-interpolation-filters="sRGB">
<feFlood flood-opacity="0" result="BackgroundImageFix"/>
<feGaussianBlur in="BackgroundImageFix" stdDeviation="6.65264"/>
<feComposite in2="SourceAlpha" operator="in" result="effect1_backgroundBlur_491_788"/>
<feBlend mode="normal" in="SourceGraphic" in2="effect1_backgroundBlur_491_788" result="shape"/>
</filter>
<linearGradient id="paint0_linear_491_788" x1="18.1731" y1="21.6348" x2="65.6236" y2="39.3388" gradientUnits="userSpaceOnUse">
<stop stop-color="#7FC0FB"/>
<stop offset="1" stop-color="#4088F4"/>
</linearGradient>
<linearGradient id="paint1_linear_491_788" x1="33.7501" y1="-7.37001" x2="32.8196" y2="39.2882" gradientUnits="userSpaceOnUse">
<stop stop-color="white"/>
<stop offset="0.996024" stop-color="white" stop-opacity="0"/>
</linearGradient>
<linearGradient id="paint2_linear_491_788" x1="47.4877" y1="44.6569" x2="47.4877" y2="8.41344" gradientUnits="userSpaceOnUse">
<stop stop-color="white"/>
<stop offset="1" stop-color="white" stop-opacity="0"/>
</linearGradient>
<linearGradient id="paint3_linear_491_788" x1="36.1192" y1="49.534" x2="55.6647" y2="8.25577" gradientUnits="userSpaceOnUse">
<stop stop-color="white"/>
<stop offset="1" stop-color="white" stop-opacity="0"/>
</linearGradient>
<linearGradient id="paint4_linear_491_788" x1="43.4146" y1="54.0293" x2="47.4708" y2="21.3727" gradientUnits="userSpaceOnUse">
<stop stop-color="white"/>
<stop offset="1" stop-color="white" stop-opacity="0"/>
</linearGradient>
<linearGradient id="paint5_linear_491_788" x1="38.7418" y1="55.4832" x2="54.5311" y2="27.4379" gradientUnits="userSpaceOnUse">
<stop stop-color="white"/>
<stop offset="1" stop-color="white" stop-opacity="0"/>
</linearGradient>
<linearGradient id="paint6_linear_491_788" x1="18.2065" y1="30.3323" x2="53.5291" y2="55.9639" gradientUnits="userSpaceOnUse">
<stop stop-color="#529EE3"/>
<stop offset="1" stop-color="#4088F4"/>
</linearGradient>
</defs>
</svg>
